<?xml version="1.0" encoding="UTF-8"?>
<!DOCTYPE svg PUBLIC "-//W3C//DTD SVG 1.1//EN" "http://www.w3.org/Graphics/SVG/1.1/DTD/svg11.dtd">
<svg xmlns="http://www.w3.org/2000/svg" version="1.1" width="512px" height="512px" style="shape-rendering:geometricPrecision; text-rendering:geometricPrecision; image-rendering:optimizeQuality; fill-rule:evenodd; clip-rule:evenodd" xmlns:xlink="http://www.w3.org/1999/xlink">
<g><path style="opacity:1" fill="#000000" d="M 111.5,63.5 C 111.5,58.1667 111.5,52.8333 111.5,47.5C 127.5,47.5 143.5,47.5 159.5,47.5C 159.5,58.1667 159.5,68.8333 159.5,79.5C 244.833,79.5 330.167,79.5 415.5,79.5C 415.5,90.1667 415.5,100.833 415.5,111.5C 330.167,111.5 244.833,111.5 159.5,111.5C 159.5,122.167 159.5,132.833 159.5,143.5C 138.167,143.5 116.833,143.5 95.5,143.5C 95.5,116.833 95.5,90.1667 95.5,63.5C 100.833,63.5 106.167,63.5 111.5,63.5 Z M 111.5,63.5 C 122.167,63.5 132.833,63.5 143.5,63.5C 143.5,84.8333 143.5,106.167 143.5,127.5C 132.833,127.5 122.167,127.5 111.5,127.5C 111.5,106.167 111.5,84.8333 111.5,63.5 Z"/></g>
<g><path style="opacity:1" fill="#000000" d="M 159.5,191.5 C 239.5,191.5 319.5,191.5 399.5,191.5C 399.5,196.833 399.5,202.167 399.5,207.5C 415.5,207.5 431.5,207.5 447.5,207.5C 447.5,228.833 447.5,250.167 447.5,271.5C 436.833,271.5 426.167,271.5 415.5,271.5C 415.5,282.167 415.5,292.833 415.5,303.5C 404.833,303.5 394.167,303.5 383.5,303.5C 383.5,308.833 383.5,314.167 383.5,319.5C 372.833,319.5 362.167,319.5 351.5,319.5C 351.5,335.5 351.5,351.5 351.5,367.5C 356.833,367.5 362.167,367.5 367.5,367.5C 367.5,372.833 367.5,378.167 367.5,383.5C 372.833,383.5 378.167,383.5 383.5,383.5C 383.5,388.833 383.5,394.167 383.5,399.5C 388.833,399.5 394.167,399.5 399.5,399.5C 399.5,420.833 399.5,442.167 399.5,463.5C 314.167,463.5 228.833,463.5 143.5,463.5C 143.5,442.167 143.5,420.833 143.5,399.5C 148.833,399.5 154.167,399.5 159.5,399.5C 159.5,394.167 159.5,388.833 159.5,383.5C 170.167,383.5 180.833,383.5 191.5,383.5C 191.5,362.167 191.5,340.833 191.5,319.5C 175.5,319.5 159.5,319.5 143.5,319.5C 143.5,314.167 143.5,308.833 143.5,303.5C 127.5,303.5 111.5,303.5 95.5,303.5C 95.5,292.833 95.5,282.167 95.5,271.5C 84.8333,271.5 74.1667,271.5 63.5,271.5C 63.5,250.167 63.5,228.833 63.5,207.5C 95.5,207.5 127.5,207.5 159.5,207.5C 159.5,202.167 159.5,196.833 159.5,191.5 Z M 175.5,207.5 C 244.833,207.5 314.167,207.5 383.5,207.5C 383.5,212.833 383.5,218.167 383.5,223.5C 399.5,223.5 415.5,223.5 431.5,223.5C 431.5,234.167 431.5,244.833 431.5,255.5C 420.833,255.5 410.167,255.5 399.5,255.5C 399.5,266.167 399.5,276.833 399.5,287.5C 388.833,287.5 378.167,287.5 367.5,287.5C 367.5,292.833 367.5,298.167 367.5,303.5C 356.833,303.5 346.167,303.5 335.5,303.5C 335.5,330.167 335.5,356.833 335.5,383.5C 340.833,383.5 346.167,383.5 351.5,383.5C 351.5,388.833 351.5,394.167 351.5,399.5C 303.5,399.5 255.5,399.5 207.5,399.5C 207.5,367.5 207.5,335.5 207.5,303.5C 196.833,303.5 186.167,303.5 175.5,303.5C 175.5,271.5 175.5,239.5 175.5,207.5 Z M 79.5,223.5 C 106.167,223.5 132.833,223.5 159.5,223.5C 159.5,244.833 159.5,266.167 159.5,287.5C 143.5,287.5 127.5,287.5 111.5,287.5C 111.5,276.833 111.5,266.167 111.5,255.5C 100.833,255.5 90.1667,255.5 79.5,255.5C 79.5,244.833 79.5,234.167 79.5,223.5 Z M 159.5,415.5 C 234.167,415.5 308.833,415.5 383.5,415.5C 383.5,426.167 383.5,436.833 383.5,447.5C 308.833,447.5 234.167,447.5 159.5,447.5C 159.5,436.833 159.5,426.167 159.5,415.5 Z"/></g>
</svg>
