<?xml version="1.0" encoding="UTF-8"?>
<!DOCTYPE svg PUBLIC "-//W3C//DTD SVG 1.1//EN" "http://www.w3.org/Graphics/SVG/1.1/DTD/svg11.dtd">
<svg xmlns="http://www.w3.org/2000/svg" version="1.1" width="512px" height="512px" style="shape-rendering:geometricPrecision; text-rendering:geometricPrecision; image-rendering:optimizeQuality; fill-rule:evenodd; clip-rule:evenodd" xmlns:xlink="http://www.w3.org/1999/xlink">
<rect width="512" height="512" fill="#818cf8" rx="24" />
<g><path style="opacity:1" fill="#181918" d="M 159.5,47.5 C 148.833,47.5 138.167,47.5 127.5,47.5C 127.5,52.8333 127.5,58.1667 127.5,63.5C 122.167,63.5 116.833,63.5 111.5,63.5C 111.5,90.1667 111.5,116.833 111.5,143.5C 106.167,143.5 100.833,143.5 95.5,143.5C 95.5,111.5 95.5,79.5 95.5,47.5C 100.833,47.5 106.167,47.5 111.5,47.5C 111.5,42.1667 111.5,36.8333 111.5,31.5C 127.5,31.5 143.5,31.5 159.5,31.5C 159.5,36.8333 159.5,42.1667 159.5,47.5 Z"/></g>
<g><path style="opacity:1" fill="#000000" d="M 159.5,47.5 C 159.5,52.8333 159.5,58.1667 159.5,63.5C 159.5,68.8333 159.5,74.1667 159.5,79.5C 159.5,90.1667 159.5,100.833 159.5,111.5C 159.5,122.167 159.5,132.833 159.5,143.5C 143.5,143.5 127.5,143.5 111.5,143.5C 111.5,116.833 111.5,90.1667 111.5,63.5C 116.833,63.5 122.167,63.5 127.5,63.5C 127.5,58.1667 127.5,52.8333 127.5,47.5C 138.167,47.5 148.833,47.5 159.5,47.5 Z"/></g>
<g><path style="opacity:1" fill="#ae4b1e" d="M 159.5,63.5 C 244.833,63.5 330.167,63.5 415.5,63.5C 415.5,68.8333 415.5,74.1667 415.5,79.5C 330.167,79.5 244.833,79.5 159.5,79.5C 159.5,74.1667 159.5,68.8333 159.5,63.5 Z"/></g>
<g><path style="opacity:1" fill="#9b3e11" d="M 159.5,79.5 C 244.833,79.5 330.167,79.5 415.5,79.5C 415.5,90.1667 415.5,100.833 415.5,111.5C 330.167,111.5 244.833,111.5 159.5,111.5C 159.5,100.833 159.5,90.1667 159.5,79.5 Z"/></g>
<g><path style="opacity:1" fill="#191f32" d="M 175.5,191.5 C 175.5,196.833 175.5,202.167 175.5,207.5C 170.167,207.5 164.833,207.5 159.5,207.5C 159.5,202.167 159.5,196.833 159.5,191.5C 164.833,191.5 170.167,191.5 175.5,191.5 Z"/></g>
<g><path style="opacity:1" fill="#00191f" d="M 175.5,191.5 C 250.167,191.5 324.833,191.5 399.5,191.5C 399.5,196.833 399.5,202.167 399.5,207.5C 394.167,207.5 388.833,207.5 383.5,207.5C 319.5,207.5 255.5,207.5 191.5,207.5C 186.167,207.5 180.833,207.5 175.5,207.5C 175.5,202.167 175.5,196.833 175.5,191.5 Z"/></g>
<g><path style="opacity:1" fill="#313e4a" d="M 79.5,207.5 C 79.5,212.833 79.5,218.167 79.5,223.5C 79.5,234.167 79.5,244.833 79.5,255.5C 79.5,260.833 79.5,266.167 79.5,271.5C 74.1667,271.5 68.8333,271.5 63.5,271.5C 63.5,250.167 63.5,228.833 63.5,207.5C 68.8333,207.5 74.1667,207.5 79.5,207.5 Z"/></g>
<g><path style="opacity:1" fill="#00191f" d="M 79.5,207.5 C 90.1667,207.5 100.833,207.5 111.5,207.5C 111.5,212.833 111.5,218.167 111.5,223.5C 106.167,223.5 100.833,223.5 95.5,223.5C 90.1667,223.5 84.8333,223.5 79.5,223.5C 79.5,218.167 79.5,212.833 79.5,207.5 Z"/></g>
<g><path style="opacity:1" fill="#051924" d="M 111.5,207.5 C 127.5,207.5 143.5,207.5 159.5,207.5C 164.833,207.5 170.167,207.5 175.5,207.5C 175.5,212.833 175.5,218.167 175.5,223.5C 175.5,228.833 175.5,234.167 175.5,239.5C 175.5,250.167 175.5,260.833 175.5,271.5C 170.167,271.5 164.833,271.5 159.5,271.5C 159.5,266.167 159.5,260.833 159.5,255.5C 159.5,244.833 159.5,234.167 159.5,223.5C 154.167,223.5 148.833,223.5 143.5,223.5C 132.833,223.5 122.167,223.5 111.5,223.5C 111.5,218.167 111.5,212.833 111.5,207.5 Z"/></g>
<g><path style="opacity:1" fill="#446463" d="M 175.5,207.5 C 180.833,207.5 186.167,207.5 191.5,207.5C 191.5,212.833 191.5,218.167 191.5,223.5C 186.167,223.5 180.833,223.5 175.5,223.5C 175.5,218.167 175.5,212.833 175.5,207.5 Z"/></g>
<g><path style="opacity:1" fill="#aebbc0" d="M 191.5,207.5 C 255.5,207.5 319.5,207.5 383.5,207.5C 383.5,212.833 383.5,218.167 383.5,223.5C 319.5,223.5 255.5,223.5 191.5,223.5C 191.5,218.167 191.5,212.833 191.5,207.5 Z"/></g>
<g><path style="opacity:1" fill="#000b1f" d="M 383.5,207.5 C 388.833,207.5 394.167,207.5 399.5,207.5C 399.5,212.833 399.5,218.167 399.5,223.5C 394.167,223.5 388.833,223.5 383.5,223.5C 383.5,218.167 383.5,212.833 383.5,207.5 Z"/></g>
<g><path style="opacity:1" fill="#00191f" d="M 399.5,207.5 C 415.5,207.5 431.5,207.5 447.5,207.5C 447.5,218.167 447.5,228.833 447.5,239.5C 442.167,239.5 436.833,239.5 431.5,239.5C 431.5,234.167 431.5,228.833 431.5,223.5C 426.167,223.5 420.833,223.5 415.5,223.5C 410.167,223.5 404.833,223.5 399.5,223.5C 399.5,218.167 399.5,212.833 399.5,207.5 Z"/></g>
<g><path style="opacity:1" fill="#0c1f32" d="M 79.5,223.5 C 84.8333,223.5 90.1667,223.5 95.5,223.5C 95.5,234.167 95.5,244.833 95.5,255.5C 90.1667,255.5 84.8333,255.5 79.5,255.5C 79.5,244.833 79.5,234.167 79.5,223.5 Z"/></g>
<g><path style="opacity:1" fill="#6f8388" d="M 95.5,223.5 C 100.833,223.5 106.167,223.5 111.5,223.5C 111.5,228.833 111.5,234.167 111.5,239.5C 111.5,244.833 111.5,250.167 111.5,255.5C 106.167,255.5 100.833,255.5 95.5,255.5C 95.5,244.833 95.5,234.167 95.5,223.5 Z"/></g>
<g><path style="opacity:1" fill="#7c9695" d="M 111.5,223.5 C 122.167,223.5 132.833,223.5 143.5,223.5C 143.5,228.833 143.5,234.167 143.5,239.5C 132.833,239.5 122.167,239.5 111.5,239.5C 111.5,234.167 111.5,228.833 111.5,223.5 Z"/></g>
<g><path style="opacity:1" fill="#6f898e" d="M 143.5,223.5 C 148.833,223.5 154.167,223.5 159.5,223.5C 159.5,234.167 159.5,244.833 159.5,255.5C 154.167,255.5 148.833,255.5 143.5,255.5C 143.5,250.167 143.5,244.833 143.5,239.5C 143.5,234.167 143.5,228.833 143.5,223.5 Z"/></g>
<g><path style="opacity:1" fill="#1f384b" d="M 175.5,223.5 C 180.833,223.5 186.167,223.5 191.5,223.5C 191.5,228.833 191.5,234.167 191.5,239.5C 186.167,239.5 180.833,239.5 175.5,239.5C 175.5,234.167 175.5,228.833 175.5,223.5 Z"/></g>
<g><path style="opacity:1" fill="#4b7082" d="M 191.5,223.5 C 255.5,223.5 319.5,223.5 383.5,223.5C 383.5,228.833 383.5,234.167 383.5,239.5C 319.5,239.5 255.5,239.5 191.5,239.5C 191.5,234.167 191.5,228.833 191.5,223.5 Z"/></g>
<g><path style="opacity:1" fill="#1f4b5b" d="M 383.5,223.5 C 388.833,223.5 394.167,223.5 399.5,223.5C 404.833,223.5 410.167,223.5 415.5,223.5C 415.5,234.167 415.5,244.833 415.5,255.5C 404.833,255.5 394.167,255.5 383.5,255.5C 383.5,250.167 383.5,244.833 383.5,239.5C 383.5,234.167 383.5,228.833 383.5,223.5 Z"/></g>
<g><path style="opacity:1" fill="#193e51" d="M 415.5,223.5 C 420.833,223.5 426.167,223.5 431.5,223.5C 431.5,228.833 431.5,234.167 431.5,239.5C 431.5,244.833 431.5,250.167 431.5,255.5C 426.167,255.5 420.833,255.5 415.5,255.5C 415.5,244.833 415.5,234.167 415.5,223.5 Z"/></g>
<g><path style="opacity:1" fill="#88a2a7" d="M 111.5,239.5 C 122.167,239.5 132.833,239.5 143.5,239.5C 143.5,244.833 143.5,250.167 143.5,255.5C 132.833,255.5 122.167,255.5 111.5,255.5C 111.5,250.167 111.5,244.833 111.5,239.5 Z"/></g>
<g><path style="opacity:1" fill="#325770" d="M 191.5,239.5 C 255.5,239.5 319.5,239.5 383.5,239.5C 383.5,244.833 383.5,250.167 383.5,255.5C 383.5,260.833 383.5,266.167 383.5,271.5C 378.167,271.5 372.833,271.5 367.5,271.5C 367.5,266.167 367.5,260.833 367.5,255.5C 362.167,255.5 356.833,255.5 351.5,255.5C 351.5,266.167 351.5,276.833 351.5,287.5C 351.5,292.833 351.5,298.167 351.5,303.5C 346.167,303.5 340.833,303.5 335.5,303.5C 330.167,303.5 324.833,303.5 319.5,303.5C 319.5,308.833 319.5,314.167 319.5,319.5C 287.5,319.5 255.5,319.5 223.5,319.5C 223.5,314.167 223.5,308.833 223.5,303.5C 218.167,303.5 212.833,303.5 207.5,303.5C 202.167,303.5 196.833,303.5 191.5,303.5C 191.5,282.167 191.5,260.833 191.5,239.5 Z"/></g>
<g><path style="opacity:1" fill="#001925" d="M 431.5,239.5 C 436.833,239.5 442.167,239.5 447.5,239.5C 447.5,250.167 447.5,260.833 447.5,271.5C 442.167,271.5 436.833,271.5 431.5,271.5C 431.5,266.167 431.5,260.833 431.5,255.5C 431.5,250.167 431.5,244.833 431.5,239.5 Z"/></g>
<g><path style="opacity:1" fill="#00191f" d="M 79.5,255.5 C 84.8333,255.5 90.1667,255.5 95.5,255.5C 100.833,255.5 106.167,255.5 111.5,255.5C 111.5,260.833 111.5,266.167 111.5,271.5C 106.167,271.5 100.833,271.5 95.5,271.5C 90.1667,271.5 84.8333,271.5 79.5,271.5C 79.5,266.167 79.5,260.833 79.5,255.5 Z"/></g>
<g><path style="opacity:1" fill="#2b576a" d="M 111.5,255.5 C 122.167,255.5 132.833,255.5 143.5,255.5C 148.833,255.5 154.167,255.5 159.5,255.5C 159.5,260.833 159.5,266.167 159.5,271.5C 154.167,271.5 148.833,271.5 143.5,271.5C 138.167,271.5 132.833,271.5 127.5,271.5C 122.167,271.5 116.833,271.5 111.5,271.5C 111.5,266.167 111.5,260.833 111.5,255.5 Z"/></g>
<g><path style="opacity:1" fill="#2b576a" d="M 367.5,271.5 C 367.5,276.833 367.5,282.167 367.5,287.5C 362.167,287.5 356.833,287.5 351.5,287.5C 351.5,276.833 351.5,266.167 351.5,255.5C 356.833,255.5 362.167,255.5 367.5,255.5C 367.5,260.833 367.5,266.167 367.5,271.5 Z"/></g>
<g><path style="opacity:1" fill="#00111f" d="M 383.5,255.5 C 394.167,255.5 404.833,255.5 415.5,255.5C 420.833,255.5 426.167,255.5 431.5,255.5C 431.5,260.833 431.5,266.167 431.5,271.5C 426.167,271.5 420.833,271.5 415.5,271.5C 415.5,276.833 415.5,282.167 415.5,287.5C 410.167,287.5 404.833,287.5 399.5,287.5C 399.5,292.833 399.5,298.167 399.5,303.5C 394.167,303.5 388.833,303.5 383.5,303.5C 383.5,308.833 383.5,314.167 383.5,319.5C 372.833,319.5 362.167,319.5 351.5,319.5C 351.5,324.833 351.5,330.167 351.5,335.5C 346.167,335.5 340.833,335.5 335.5,335.5C 335.5,330.167 335.5,324.833 335.5,319.5C 335.5,314.167 335.5,308.833 335.5,303.5C 340.833,303.5 346.167,303.5 351.5,303.5C 356.833,303.5 362.167,303.5 367.5,303.5C 367.5,298.167 367.5,292.833 367.5,287.5C 367.5,282.167 367.5,276.833 367.5,271.5C 372.833,271.5 378.167,271.5 383.5,271.5C 383.5,266.167 383.5,260.833 383.5,255.5 Z"/></g>
<g><path style="opacity:1" fill="#071a2c" d="M 95.5,271.5 C 100.833,271.5 106.167,271.5 111.5,271.5C 116.833,271.5 122.167,271.5 127.5,271.5C 127.5,282.167 127.5,292.833 127.5,303.5C 116.833,303.5 106.167,303.5 95.5,303.5C 95.5,292.833 95.5,282.167 95.5,271.5 Z"/></g>
<g><path style="opacity:1" fill="#061925" d="M 127.5,271.5 C 132.833,271.5 138.167,271.5 143.5,271.5C 143.5,282.167 143.5,292.833 143.5,303.5C 138.167,303.5 132.833,303.5 127.5,303.5C 127.5,292.833 127.5,282.167 127.5,271.5 Z"/></g>
<g><path style="opacity:1" fill="#001125" d="M 143.5,271.5 C 148.833,271.5 154.167,271.5 159.5,271.5C 159.5,282.167 159.5,292.833 159.5,303.5C 154.167,303.5 148.833,303.5 143.5,303.5C 143.5,292.833 143.5,282.167 143.5,271.5 Z"/></g>
<g><path style="opacity:1" fill="#00111f" d="M 159.5,271.5 C 164.833,271.5 170.167,271.5 175.5,271.5C 175.5,282.167 175.5,292.833 175.5,303.5C 180.833,303.5 186.167,303.5 191.5,303.5C 196.833,303.5 202.167,303.5 207.5,303.5C 207.5,308.833 207.5,314.167 207.5,319.5C 202.167,319.5 196.833,319.5 191.5,319.5C 175.5,319.5 159.5,319.5 143.5,319.5C 143.5,314.167 143.5,308.833 143.5,303.5C 148.833,303.5 154.167,303.5 159.5,303.5C 159.5,292.833 159.5,282.167 159.5,271.5 Z"/></g>
<g><path style="opacity:1" fill="#14323d" d="M 175.5,239.5 C 180.833,239.5 186.167,239.5 191.5,239.5C 191.5,260.833 191.5,282.167 191.5,303.5C 186.167,303.5 180.833,303.5 175.5,303.5C 175.5,292.833 175.5,282.167 175.5,271.5C 175.5,260.833 175.5,250.167 175.5,239.5 Z"/></g>
<g><path style="opacity:1" fill="#2b384b" d="M 431.5,271.5 C 431.5,282.167 431.5,292.833 431.5,303.5C 426.167,303.5 420.833,303.5 415.5,303.5C 415.5,298.167 415.5,292.833 415.5,287.5C 415.5,282.167 415.5,276.833 415.5,271.5C 420.833,271.5 426.167,271.5 431.5,271.5 Z"/></g>
<g><path style="opacity:1" fill="#254b56" d="M 351.5,287.5 C 356.833,287.5 362.167,287.5 367.5,287.5C 367.5,292.833 367.5,298.167 367.5,303.5C 362.167,303.5 356.833,303.5 351.5,303.5C 351.5,298.167 351.5,292.833 351.5,287.5 Z"/></g>
<g><path style="opacity:1" fill="#0c1f32" d="M 415.5,287.5 C 415.5,292.833 415.5,298.167 415.5,303.5C 410.167,303.5 404.833,303.5 399.5,303.5C 399.5,298.167 399.5,292.833 399.5,287.5C 404.833,287.5 410.167,287.5 415.5,287.5 Z"/></g>
<g><path style="opacity:1" fill="#19324b" d="M 207.5,303.5 C 212.833,303.5 218.167,303.5 223.5,303.5C 223.5,308.833 223.5,314.167 223.5,319.5C 218.167,319.5 212.833,319.5 207.5,319.5C 207.5,314.167 207.5,308.833 207.5,303.5 Z"/></g>
<g><path style="opacity:1" fill="#1f4b64" d="M 335.5,303.5 C 335.5,308.833 335.5,314.167 335.5,319.5C 330.167,319.5 324.833,319.5 319.5,319.5C 319.5,314.167 319.5,308.833 319.5,303.5C 324.833,303.5 330.167,303.5 335.5,303.5 Z"/></g>
<g><path style="opacity:1" fill="#193e51" d="M 223.5,319.5 C 255.5,319.5 287.5,319.5 319.5,319.5C 319.5,324.833 319.5,330.167 319.5,335.5C 287.5,335.5 255.5,335.5 223.5,335.5C 223.5,330.167 223.5,324.833 223.5,319.5 Z"/></g>
<g><path style="opacity:1" fill="#06192b" d="M 319.5,319.5 C 324.833,319.5 330.167,319.5 335.5,319.5C 335.5,324.833 335.5,330.167 335.5,335.5C 340.833,335.5 346.167,335.5 351.5,335.5C 351.5,346.167 351.5,356.833 351.5,367.5C 351.5,372.833 351.5,378.167 351.5,383.5C 346.167,383.5 340.833,383.5 335.5,383.5C 335.5,378.167 335.5,372.833 335.5,367.5C 335.5,362.167 335.5,356.833 335.5,351.5C 330.167,351.5 324.833,351.5 319.5,351.5C 319.5,346.167 319.5,340.833 319.5,335.5C 319.5,330.167 319.5,324.833 319.5,319.5 Z"/></g>
<g><path style="opacity:1" fill="#091f31" d="M 191.5,319.5 C 196.833,319.5 202.167,319.5 207.5,319.5C 212.833,319.5 218.167,319.5 223.5,319.5C 223.5,324.833 223.5,330.167 223.5,335.5C 223.5,340.833 223.5,346.167 223.5,351.5C 218.167,351.5 212.833,351.5 207.5,351.5C 207.5,356.833 207.5,362.167 207.5,367.5C 202.167,367.5 196.833,367.5 191.5,367.5C 191.5,351.5 191.5,335.5 191.5,319.5 Z"/></g>
<g><path style="opacity:1" fill="#19384b" d="M 223.5,335.5 C 255.5,335.5 287.5,335.5 319.5,335.5C 319.5,340.833 319.5,346.167 319.5,351.5C 287.5,351.5 255.5,351.5 223.5,351.5C 223.5,346.167 223.5,340.833 223.5,335.5 Z"/></g>
<g><path style="opacity:1" fill="#0c3237" d="M 223.5,351.5 C 223.5,356.833 223.5,362.167 223.5,367.5C 218.167,367.5 212.833,367.5 207.5,367.5C 207.5,362.167 207.5,356.833 207.5,351.5C 212.833,351.5 218.167,351.5 223.5,351.5 Z"/></g>
<g><path style="opacity:1" fill="#255164" d="M 223.5,351.5 C 255.5,351.5 287.5,351.5 319.5,351.5C 319.5,356.833 319.5,362.167 319.5,367.5C 287.5,367.5 255.5,367.5 223.5,367.5C 223.5,362.167 223.5,356.833 223.5,351.5 Z"/></g>
<g><path style="opacity:1" fill="#19324b" d="M 319.5,351.5 C 324.833,351.5 330.167,351.5 335.5,351.5C 335.5,356.833 335.5,362.167 335.5,367.5C 330.167,367.5 324.833,367.5 319.5,367.5C 319.5,362.167 319.5,356.833 319.5,351.5 Z"/></g>
<g><path style="opacity:1" fill="#00191f" d="M 191.5,367.5 C 196.833,367.5 202.167,367.5 207.5,367.5C 207.5,372.833 207.5,378.167 207.5,383.5C 202.167,383.5 196.833,383.5 191.5,383.5C 191.5,378.167 191.5,372.833 191.5,367.5 Z"/></g>
<g><path style="opacity:1" fill="#19384b" d="M 207.5,367.5 C 212.833,367.5 218.167,367.5 223.5,367.5C 223.5,372.833 223.5,378.167 223.5,383.5C 218.167,383.5 212.833,383.5 207.5,383.5C 207.5,378.167 207.5,372.833 207.5,367.5 Z"/></g>
<g><path style="opacity:1" fill="#325770" d="M 223.5,367.5 C 255.5,367.5 287.5,367.5 319.5,367.5C 324.833,367.5 330.167,367.5 335.5,367.5C 335.5,372.833 335.5,378.167 335.5,383.5C 335.5,388.833 335.5,394.167 335.5,399.5C 335.5,404.833 335.5,410.167 335.5,415.5C 330.167,415.5 324.833,415.5 319.5,415.5C 319.5,410.167 319.5,404.833 319.5,399.5C 319.5,394.167 319.5,388.833 319.5,383.5C 298.167,383.5 276.833,383.5 255.5,383.5C 244.833,383.5 234.167,383.5 223.5,383.5C 223.5,378.167 223.5,372.833 223.5,367.5 Z"/></g>
<g><path style="opacity:1" fill="#192532" d="M 351.5,367.5 C 356.833,367.5 362.167,367.5 367.5,367.5C 367.5,372.833 367.5,378.167 367.5,383.5C 362.167,383.5 356.833,383.5 351.5,383.5C 351.5,378.167 351.5,372.833 351.5,367.5 Z"/></g>
<g><path style="opacity:1" fill="#061f2b" d="M 191.5,383.5 C 191.5,388.833 191.5,394.167 191.5,399.5C 186.167,399.5 180.833,399.5 175.5,399.5C 170.167,399.5 164.833,399.5 159.5,399.5C 159.5,394.167 159.5,388.833 159.5,383.5C 170.167,383.5 180.833,383.5 191.5,383.5 Z"/></g>
<g><path style="opacity:1" fill="#19324b" d="M 191.5,383.5 C 196.833,383.5 202.167,383.5 207.5,383.5C 207.5,388.833 207.5,394.167 207.5,399.5C 202.167,399.5 196.833,399.5 191.5,399.5C 191.5,394.167 191.5,388.833 191.5,383.5 Z"/></g>
<g><path style="opacity:1" fill="#325d70" d="M 207.5,383.5 C 212.833,383.5 218.167,383.5 223.5,383.5C 223.5,388.833 223.5,394.167 223.5,399.5C 223.5,404.833 223.5,410.167 223.5,415.5C 212.833,415.5 202.167,415.5 191.5,415.5C 191.5,410.167 191.5,404.833 191.5,399.5C 196.833,399.5 202.167,399.5 207.5,399.5C 207.5,394.167 207.5,388.833 207.5,383.5 Z"/></g>
<g><path style="opacity:1" fill="#1f4b64" d="M 223.5,383.5 C 234.167,383.5 244.833,383.5 255.5,383.5C 255.5,388.833 255.5,394.167 255.5,399.5C 244.833,399.5 234.167,399.5 223.5,399.5C 223.5,394.167 223.5,388.833 223.5,383.5 Z"/></g>
<g><path style="opacity:1" fill="#255164" d="M 255.5,383.5 C 276.833,383.5 298.167,383.5 319.5,383.5C 319.5,388.833 319.5,394.167 319.5,399.5C 298.167,399.5 276.833,399.5 255.5,399.5C 255.5,394.167 255.5,388.833 255.5,383.5 Z"/></g>
<g><path style="opacity:1" fill="#1f4b57" d="M 335.5,383.5 C 340.833,383.5 346.167,383.5 351.5,383.5C 351.5,388.833 351.5,394.167 351.5,399.5C 346.167,399.5 340.833,399.5 335.5,399.5C 335.5,394.167 335.5,388.833 335.5,383.5 Z"/></g>
<g><path style="opacity:1" fill="#19323e" d="M 351.5,383.5 C 356.833,383.5 362.167,383.5 367.5,383.5C 367.5,388.833 367.5,394.167 367.5,399.5C 362.167,399.5 356.833,399.5 351.5,399.5C 351.5,394.167 351.5,388.833 351.5,383.5 Z"/></g>
<g><path style="opacity:1" fill="#00191f" d="M 367.5,383.5 C 372.833,383.5 378.167,383.5 383.5,383.5C 383.5,388.833 383.5,394.167 383.5,399.5C 388.833,399.5 394.167,399.5 399.5,399.5C 399.5,404.833 399.5,410.167 399.5,415.5C 394.167,415.5 388.833,415.5 383.5,415.5C 378.167,415.5 372.833,415.5 367.5,415.5C 367.5,410.167 367.5,404.833 367.5,399.5C 367.5,394.167 367.5,388.833 367.5,383.5 Z"/></g>
<g><path style="opacity:1" fill="#00111f" d="M 159.5,399.5 C 164.833,399.5 170.167,399.5 175.5,399.5C 175.5,404.833 175.5,410.167 175.5,415.5C 170.167,415.5 164.833,415.5 159.5,415.5C 159.5,420.833 159.5,426.167 159.5,431.5C 159.5,436.833 159.5,442.167 159.5,447.5C 164.833,447.5 170.167,447.5 175.5,447.5C 191.5,447.5 207.5,447.5 223.5,447.5C 234.167,447.5 244.833,447.5 255.5,447.5C 255.5,452.833 255.5,458.167 255.5,463.5C 218.167,463.5 180.833,463.5 143.5,463.5C 143.5,442.167 143.5,420.833 143.5,399.5C 148.833,399.5 154.167,399.5 159.5,399.5 Z"/></g>
<g><path style="opacity:1" fill="#19323e" d="M 175.5,399.5 C 180.833,399.5 186.167,399.5 191.5,399.5C 191.5,404.833 191.5,410.167 191.5,415.5C 186.167,415.5 180.833,415.5 175.5,415.5C 175.5,410.167 175.5,404.833 175.5,399.5 Z"/></g>
<g><path style="opacity:1" fill="#19384b" d="M 223.5,399.5 C 234.167,399.5 244.833,399.5 255.5,399.5C 276.833,399.5 298.167,399.5 319.5,399.5C 319.5,404.833 319.5,410.167 319.5,415.5C 287.5,415.5 255.5,415.5 223.5,415.5C 223.5,410.167 223.5,404.833 223.5,399.5 Z"/></g>
<g><path style="opacity:1" fill="#2b576a" d="M 335.5,399.5 C 340.833,399.5 346.167,399.5 351.5,399.5C 356.833,399.5 362.167,399.5 367.5,399.5C 367.5,404.833 367.5,410.167 367.5,415.5C 356.833,415.5 346.167,415.5 335.5,415.5C 335.5,410.167 335.5,404.833 335.5,399.5 Z"/></g>
<g><path style="opacity:1" fill="#9b7d1e" d="M 175.5,415.5 C 175.5,420.833 175.5,426.167 175.5,431.5C 170.167,431.5 164.833,431.5 159.5,431.5C 159.5,426.167 159.5,420.833 159.5,415.5C 164.833,415.5 170.167,415.5 175.5,415.5 Z"/></g>
<g><path style="opacity:1" fill="#b47d24" d="M 175.5,415.5 C 180.833,415.5 186.167,415.5 191.5,415.5C 191.5,420.833 191.5,426.167 191.5,431.5C 202.167,431.5 212.833,431.5 223.5,431.5C 223.5,436.833 223.5,442.167 223.5,447.5C 207.5,447.5 191.5,447.5 175.5,447.5C 175.5,442.167 175.5,436.833 175.5,431.5C 175.5,426.167 175.5,420.833 175.5,415.5 Z"/></g>
<g><path style="opacity:1" fill="#c09631" d="M 191.5,415.5 C 202.167,415.5 212.833,415.5 223.5,415.5C 223.5,420.833 223.5,426.167 223.5,431.5C 212.833,431.5 202.167,431.5 191.5,431.5C 191.5,426.167 191.5,420.833 191.5,415.5 Z"/></g>
<g><path style="opacity:1" fill="#ae5124" d="M 223.5,415.5 C 255.5,415.5 287.5,415.5 319.5,415.5C 319.5,420.833 319.5,426.167 319.5,431.5C 287.5,431.5 255.5,431.5 223.5,431.5C 223.5,426.167 223.5,420.833 223.5,415.5 Z"/></g>
<g><path style="opacity:1" fill="#c09631" d="M 319.5,415.5 C 324.833,415.5 330.167,415.5 335.5,415.5C 346.167,415.5 356.833,415.5 367.5,415.5C 367.5,420.833 367.5,426.167 367.5,431.5C 351.5,431.5 335.5,431.5 319.5,431.5C 319.5,426.167 319.5,420.833 319.5,415.5 Z"/></g>
<g><path style="opacity:1" fill="#b47d1e" d="M 367.5,415.5 C 372.833,415.5 378.167,415.5 383.5,415.5C 383.5,420.833 383.5,426.167 383.5,431.5C 383.5,436.833 383.5,442.167 383.5,447.5C 362.167,447.5 340.833,447.5 319.5,447.5C 319.5,442.167 319.5,436.833 319.5,431.5C 335.5,431.5 351.5,431.5 367.5,431.5C 367.5,426.167 367.5,420.833 367.5,415.5 Z"/></g>
<g><path style="opacity:1" fill="#000b1f" d="M 383.5,415.5 C 388.833,415.5 394.167,415.5 399.5,415.5C 399.5,420.833 399.5,426.167 399.5,431.5C 394.167,431.5 388.833,431.5 383.5,431.5C 383.5,426.167 383.5,420.833 383.5,415.5 Z"/></g>
<g><path style="opacity:1" fill="#a1701e" d="M 159.5,431.5 C 164.833,431.5 170.167,431.5 175.5,431.5C 175.5,436.833 175.5,442.167 175.5,447.5C 170.167,447.5 164.833,447.5 159.5,447.5C 159.5,442.167 159.5,436.833 159.5,431.5 Z"/></g>
<g><path style="opacity:1" fill="#ae4b1e" d="M 223.5,431.5 C 255.5,431.5 287.5,431.5 319.5,431.5C 319.5,436.833 319.5,442.167 319.5,447.5C 308.833,447.5 298.167,447.5 287.5,447.5C 282.167,447.5 276.833,447.5 271.5,447.5C 266.167,447.5 260.833,447.5 255.5,447.5C 244.833,447.5 234.167,447.5 223.5,447.5C 223.5,442.167 223.5,436.833 223.5,431.5 Z"/></g>
<g><path style="opacity:1" fill="#00191f" d="M 383.5,431.5 C 388.833,431.5 394.167,431.5 399.5,431.5C 399.5,442.167 399.5,452.833 399.5,463.5C 362.167,463.5 324.833,463.5 287.5,463.5C 287.5,458.167 287.5,452.833 287.5,447.5C 298.167,447.5 308.833,447.5 319.5,447.5C 340.833,447.5 362.167,447.5 383.5,447.5C 383.5,442.167 383.5,436.833 383.5,431.5 Z"/></g>
<g><path style="opacity:1" fill="#0c1f32" d="M 255.5,447.5 C 260.833,447.5 266.167,447.5 271.5,447.5C 271.5,452.833 271.5,458.167 271.5,463.5C 266.167,463.5 260.833,463.5 255.5,463.5C 255.5,458.167 255.5,452.833 255.5,447.5 Z"/></g>
<g><path style="opacity:1" fill="#061932" d="M 271.5,447.5 C 276.833,447.5 282.167,447.5 287.5,447.5C 287.5,452.833 287.5,458.167 287.5,463.5C 282.167,463.5 276.833,463.5 271.5,463.5C 271.5,458.167 271.5,452.833 271.5,447.5 Z"/></g>
</svg>
