<?xml version="1.0" encoding="UTF-8"?>
<!DOCTYPE svg PUBLIC "-//W3C//DTD SVG 1.1//EN" "http://www.w3.org/Graphics/SVG/1.1/DTD/svg11.dtd">
<svg xmlns="http://www.w3.org/2000/svg" version="1.1" width="512px" height="512px"
  style="shape-rendering:geometricPrecision; text-rendering:geometricPrecision; image-rendering:optimizeQuality; fill-rule:evenodd; clip-rule:evenodd"
  xmlns:xlink="http://www.w3.org/1999/xlink">
  <!-- Anvil main body -->
  <g>
    <path style="opacity:1" fill="#8B5CF6"
      d="M 511.5,105.5 C 511.5,127.833 511.5,150.167 511.5,172.5C 509.353,176.811 506.02,179.978 501.5,182C 469.209,182.024 437.209,185.024 405.5,191C 383.512,195.334 363.512,204 345.5,217C 320.567,240.564 313.4,268.731 324,301.5C 333.607,320.764 349.107,331.93 370.5,335C 384.5,335.333 398.5,335.667 412.5,336C 415.902,337.4 418.736,339.567 421,342.5C 422.632,363.436 422.966,384.436 422,405.5C 420.5,409.667 417.667,412.5 413.5,414C 373.226,415.649 332.893,415.983 292.5,415C 290.051,414.275 287.717,413.275 285.5,412C 265.6,384.679 245.6,384.679 225.5,412C 223.283,413.275 220.949,414.275 218.5,415C 179.167,415.667 139.833,415.667 100.5,415C 94.8406,414.004 91.0073,410.838 89,405.5C 88.3333,385.5 88.3333,365.5 89,345.5C 90.8333,341 94,337.833 98.5,336C 112.5,335.667 126.5,335.333 140.5,335C 171.967,329.2 189.134,310.366 192,278.5C 192.333,220.833 192.667,163.167 193,105.5C 195.007,100.162 198.841,96.9956 204.5,96C 302.833,95.3333 401.167,95.3333 499.5,96C 505.181,97.1937 509.181,100.36 511.5,105.5 Z" />
  </g>
  <!-- Anvil handle -->
  <g>
    <path style="opacity:1" fill="#8B5CF6"
      d="M -0.5,148.5 C -0.5,141.833 -0.5,135.167 -0.5,128.5C 2.12126,124.386 5.78792,121.553 10.5,120C 61.1656,119.5 111.832,119.333 162.5,119.5C 162.5,157.167 162.5,194.833 162.5,232.5C 136.165,232.667 109.831,232.5 83.5,232C 36.9871,222.653 8.9871,194.82 -0.5,148.5 Z" />
  </g>
  <!-- Flame (scaled down and positioned inside anvil) -->
  <g transform="translate(200, 130) scale(0.22)">
    <path style="opacity:1" fill="#F97316"
      d="M 223.5,-0.5 C 224.833,-0.5 226.167,-0.5 227.5,-0.5C 299.296,32.8121 346.796,87.4787 370,163.5C 378.395,194.264 383.062,225.598 384,257.5C 391.538,265.918 400.038,266.751 409.5,260C 415.258,256.246 420.425,251.746 425,246.5C 430,240.167 435,233.833 440,227.5C 451.881,275.509 453.548,323.842 445,372.5C 430.722,436.104 393.056,479.104 332,501.5C 319.481,505.297 306.814,508.297 294,510.5C 293.409,509.517 293.743,508.85 295,508.5C 327.473,500.013 350.806,480.68 365,450.5C 373.159,425.69 371.825,401.357 361,377.5C 354.926,364.341 347.592,352.007 339,340.5C 331.798,349.533 322.965,356.533 312.5,361.5C 310.589,349.19 307.422,337.19 303,325.5C 297.503,315.169 291.503,305.169 285,295.5C 274.665,278.643 273.832,261.31 282.5,243.5C 282.167,243.167 281.833,242.833 281.5,242.5C 240.679,262.515 215.179,294.848 205,339.5C 202.633,352.44 200.966,365.44 200,378.5C 194.506,382.491 189.006,382.324 183.5,378C 178.585,373.756 174.419,368.923 171,363.5C 165.907,383.512 164.24,403.845 166,424.5C 172.342,472.669 199.176,501.669 246.5,511.5C 242.833,511.5 239.167,511.5 235.5,511.5C 188.999,505.616 147.999,487.449 112.5,457C 69.6313,415.725 53.1313,365.558 63,306.5C 68.6509,278.215 78.6509,251.549 93,226.5C 101.169,212.826 109.835,199.492 119,186.5C 119.718,185.549 120.551,185.383 121.5,186C 135.1,203.105 151.766,216.272 171.5,225.5C 173.814,192.392 183.647,161.725 201,133.5C 212.274,117.29 222.274,100.29 231,82.5C 237.994,62.3025 238.327,41.9691 232,21.5C 229.845,13.8631 227.012,6.52978 223.5,-0.5 Z" />

  </g>
  <!-- S letterform inside flame -->
  <g transform="translate(237, 200) scale(0.08)">
    <path fill="none" stroke="#FFFFFF" stroke-width="35" stroke-linecap="round" stroke-linejoin="round"
      d="M 300,140 C 220,140 200,180 200,210 C 200,250 240,270 255,270 C 270,270 310,290 310,330 C 310,370 280,410 200,410" />
  </g>
</svg>